<?xml version="1.0" encoding="iso-8859-1"?>
<!-- Uploaded to: SVG Repo, www.svgrepo.com, Generator: SVG Repo Mixer Tools -->
<svg fill="#000000" height="800px" width="800px" version="1.1" id="Layer_1" xmlns="http://www.w3.org/2000/svg" xmlns:xlink="http://www.w3.org/1999/xlink" 
	 viewBox="0 0 503.646 503.646" xml:space="preserve">
<g>
	<g>
		<path d="M493.825,9.804c-13.094-13.085-34.396-13.094-47.608,0.143L178.501,290.431c-37.326-15.284-89.919-1.032-131.332,38.727
			c-29.906,28.714-47.532,65.838-47.163,99.32c0.252,22.31,8.393,41.455,23.552,55.363c14.554,13.354,33.91,19.8,55.053,19.8
			c32.365,0,68.935-15.108,98.858-43.646c28.194-26.884,45.266-62.942,45.669-96.457c0.151-12.724-2.216-24.643-6.698-35.227
			L493.825,57.278C506.919,44.201,506.919,22.898,493.825,9.804z M81.472,366.861c-13.287,13.295-22.931,29.083-27.144,44.468
			c-3.408,12.406-2.652,22.981,1.964,27.598c3.282,3.273,3.282,8.586,0.008,11.868c-1.645,1.637-3.794,2.459-5.943,2.459
			s-4.297-0.823-5.934-2.459c-9.141-9.132-11.432-25.138-6.287-43.898c4.977-18.163,16.149-36.587,31.467-51.905
			c3.282-3.282,8.586-3.282,11.868,0C84.754,358.275,84.754,363.579,81.472,366.861z"/>
	</g>
</g>
</svg>