<?xml version="1.0" encoding="iso-8859-1"?>
<!-- Uploaded to: SVG Repo, www.svgrepo.com, Generator: SVG Repo Mixer Tools -->
<svg version="1.1" id="Layer_1" xmlns="http://www.w3.org/2000/svg" xmlns:xlink="http://www.w3.org/1999/xlink" 
	 viewBox="0 0 512 512" xml:space="preserve">
<path style="fill:#521F0E;" d="M507.374,207.409C484.67,89.264,380.768,0,256,0C114.615,0,0,114.616,0,256
	c0,113.386,73.722,209.539,175.843,243.182L507.374,207.409z"/>
<path style="fill:#220D06;" d="M512,256c0-16.617-1.603-32.857-4.626-48.591L378.435,78.47L66.783,167.513L63.435,276.6
	l86.738,86.738l-94.521,15.653l120.191,120.191C201.059,507.49,228.001,512,256,512C397.384,512,512,397.384,512,256z"/>
<path style="fill:#FFFFFF;" d="M122.435,278.817c-33.755,0-61.217-27.462-61.217-61.217s27.462-61.217,61.217-61.217h57.243v-22.261
	h-57.243c-46.03,0-83.478,37.448-83.478,83.478s37.448,83.478,83.478,83.478h57.243v-22.261H122.435z"/>
<polygon style="fill:#FFF3AD;" points="378.435,78.47 356.174,78.47 222.609,378.991 378.435,356.73 "/>
<polygon style="fill:#FFFFFF;" points="133.565,78.47 155.826,78.47 256,134.122 256,378.991 133.565,356.73 "/>
<polygon style="fill:#C9A06C;" points="256,78.47 233.739,200.904 356.174,134.122 356.174,78.47 "/>
<polygon style="fill:#DBBC82;" points="155.826,78.47 155.826,134.122 256,200.904 256,78.47 "/>
<path style="fill:#A56840;" d="M326.152,141.558c-5.683,2.842-10.173,5.085-20.068,5.085s-14.384-2.244-20.068-5.085
	c-6.625-3.312-14.869-7.434-30.014-7.436L211.478,217.6L256,334.47h111.304l-11.13-33.391V134.122
	C341.023,134.122,332.778,138.244,326.152,141.558z"/>
<path style="fill:#B78456;" d="M255.993,134.122c-15.149,0-23.395,4.123-30.02,7.436c-5.682,2.842-10.17,5.085-20.063,5.085
	c-9.894,0-14.382-2.244-20.065-5.085c-6.626-3.314-14.871-7.436-30.02-7.436V334.47h100.168V134.122H255.993z"/>
<rect x="244.87" y="67.339" style="fill:#FFFFFF;" width="22.261" height="134.957"/>
<polygon style="fill:#FFF3AD;" points="233.739,200.904 256,273.252 294.957,273.252 294.957,212.035 "/>
<polygon style="fill:#FFFFFF;" points="217.043,212.035 217.043,273.252 256,273.252 256,200.904 "/>
<polygon style="fill:#FFE376;" points="256,189.774 233.739,200.904 256,212.035 294.957,212.035 294.957,189.774 "/>
<rect x="217.043" y="189.774" style="fill:#FFF3AD;" width="38.957" height="22.261"/>
<polygon style="fill:#DBBC82;" points="456.348,356.73 356.174,367.861 356.174,301.078 456.348,301.078 "/>
<polygon style="fill:#FFE376;" points="422.957,378.991 400.696,417.948 256,417.948 234.296,367.861 "/>
<polygon style="fill:#FFF3AD;" points="111.304,417.948 256,417.948 256,367.861 89.043,378.991 "/>
<polygon style="fill:#FFD23E;" points="456.348,356.73 456.348,378.991 256,378.991 245.009,367.861 256,356.73 "/>
<rect x="55.652" y="356.73" style="fill:#FFE376;" width="200.348" height="22.261"/>
</svg>